<svg width="22" height="16" viewBox="0 0 22 16" fill="none" xmlns="http://www.w3.org/2000/svg">
<path opacity="0.5" fill-rule="evenodd" clip-rule="evenodd" d="M8.04235 0L7.96682 0.000651042C7.52082 0.00971771 5.16849 0.148334 2.72028 2.01497L2.68403 2.08333C2.36194 2.69916 0 7.40887 0 13.0964C0 13.0964 1.59662 15.8815 5.79522 16C5.79522 16 6.44577 15.1108 7.03712 14.3997C4.61257 13.6886 3.72551 12.1484 3.72551 12.1484L3.76899 12.1758C3.84139 12.2207 4.00431 12.3177 4.25775 12.4447C4.25775 12.4447 4.2577 12.5039 4.31684 12.5039C4.37597 12.5632 4.43511 12.5631 4.49425 12.6224C4.96733 12.9187 5.44053 13.0963 5.85447 13.2741C6.62323 13.5704 7.5694 13.8665 8.63384 14.1035C10.0531 14.3406 11.7088 14.4591 13.542 14.1035C14.429 13.9257 15.3161 13.6889 16.2623 13.2741C16.9128 13.037 17.6814 12.6818 18.4502 12.1484C18.4502 12.1484 17.5041 13.6886 15.0204 14.3997C15.0913 14.4946 15.1654 14.592 15.2406 14.6888L15.4672 14.9759C15.8806 15.4943 16.2623 15.9408 16.2623 15.9408C20.4609 15.8222 22.0576 13.0371 21.9984 13.0964C21.9984 7.40887 19.6365 2.69916 19.3144 2.08333L19.2823 2.02279C16.83 0.148466 14.4774 0.00971771 14.0314 0.000651042L13.9559 0L13.7194 0.296224C16.9719 1.30362 18.4502 2.72591 18.4502 2.72591C16.4987 1.6 14.5473 1.12636 12.7733 0.889323C11.4131 0.770803 10.1121 0.770794 8.92942 0.948568C8.87028 0.948568 8.7521 1.00781 8.63384 1.00781C7.92422 1.06707 6.32744 1.30383 4.31684 2.19271C3.60721 2.489 3.19327 2.72591 3.19327 2.72591C3.19327 2.72591 4.7899 1.24437 8.21976 0.236979L8.04235 0ZM14.4375 6.66667C15.5624 6.66667 16.4999 7.55556 16.4999 8.66667C16.4999 9.77777 15.5624 10.6667 14.4375 10.6667C13.3125 10.6667 12.375 9.77777 12.375 8.66667C12.375 7.55556 13.3125 6.66667 14.4375 6.66667ZM7.56248 6.66667C8.68747 6.66667 9.62497 7.55556 9.62497 8.66667C9.62497 9.77777 8.68747 10.6667 7.56248 10.6667C6.43748 10.6667 5.49998 9.77777 5.49998 8.66667C5.49998 7.55556 6.43748 6.66667 7.56248 6.66667Z" fill="#FF0083"/>
</svg>
