<svg width="16" height="16" viewBox="0 0 16 16" fill="none" xmlns="http://www.w3.org/2000/svg">
<g clip-path="url(#clip0_0_3843)">
<path d="M2.59701 2L3.87767 3.54656L0 5.09313L2.59701 2Z" fill="url(#paint0_linear_0_3843)"/>
<path d="M8.0141 9.79305L11.9602 5.09314H13.9728L8.00391 12.2368L8.0141 9.79305Z" fill="url(#paint1_linear_0_3843)"/>
<path d="M11.9598 5.09313H0L3.87767 3.54657H12.7197L13.9724 5.09313H11.9598Z" fill="url(#paint2_linear_0_3843)"/>
<path d="M11.959 5.09313L12.7189 3.54657L13.9716 5.09313H11.959Z" fill="url(#paint3_linear_0_3843)"/>
<path d="M12.7203 3.54656H3.87831L2.59766 2H13.4281L12.7203 3.54656Z" fill="url(#paint4_linear_0_3843)"/>
<path d="M13.9715 5.09313L12.7188 3.54656L13.4265 2L15.9991 5.09313H13.9715Z" fill="url(#paint5_linear_0_3843)"/>
<path d="M8.00391 12.2368L13.9728 5.09314H16.0004L10.0342 12.1991L8.01777 14.6095L8.00391 12.2368Z" fill="url(#paint6_linear_0_3843)"/>
<path d="M5.65381 9.43823L8.01191 12.2368L8.02577 14.6094L2.63281 8.18625L5.65381 9.43823Z" fill="url(#paint7_linear_0_3843)"/>
<path d="M5.65381 9.43823L2.63281 8.18625H6.67304L5.65381 9.43823Z" fill="url(#paint8_linear_0_3843)"/>
<path d="M6.67352 8.18625L5.6543 9.43823L8.01239 12.2368L8.02259 9.79303L6.67352 8.18625Z" fill="url(#paint9_linear_0_3843)"/>
</g>
<defs>
<linearGradient id="paint0_linear_0_3843" x1="1.93883" y1="2" x2="1.93883" y2="5.09313" gradientUnits="userSpaceOnUse">
<stop stop-color="#8959DF"/>
<stop offset="1" stop-color="#512DBC"/>
</linearGradient>
<linearGradient id="paint1_linear_0_3843" x1="10.9884" y1="5.09314" x2="10.9884" y2="12.2368" gradientUnits="userSpaceOnUse">
<stop stop-color="#8959DF"/>
<stop offset="1" stop-color="#512DBC"/>
</linearGradient>
<linearGradient id="paint2_linear_0_3843" x1="6.98621" y1="3.54657" x2="6.98621" y2="5.09313" gradientUnits="userSpaceOnUse">
<stop stop-color="#8959DF"/>
<stop offset="1" stop-color="#512DBC"/>
</linearGradient>
<linearGradient id="paint3_linear_0_3843" x1="13.9716" y1="4.31985" x2="11.959" y2="4.31985" gradientUnits="userSpaceOnUse">
<stop stop-color="#8959DF"/>
<stop offset="1" stop-color="#512DBC"/>
</linearGradient>
<linearGradient id="paint4_linear_0_3843" x1="8.01286" y1="2" x2="8.01286" y2="3.54656" gradientUnits="userSpaceOnUse">
<stop stop-color="#8959DF"/>
<stop offset="1" stop-color="#512DBC"/>
</linearGradient>
<linearGradient id="paint5_linear_0_3843" x1="14.3589" y1="2" x2="14.3589" y2="5.09313" gradientUnits="userSpaceOnUse">
<stop stop-color="#8959DF"/>
<stop offset="1" stop-color="#512DBC"/>
</linearGradient>
<linearGradient id="paint6_linear_0_3843" x1="12.0022" y1="5.09314" x2="12.0022" y2="14.6095" gradientUnits="userSpaceOnUse">
<stop stop-color="#8959DF"/>
<stop offset="1" stop-color="#512DBC"/>
</linearGradient>
<linearGradient id="paint7_linear_0_3843" x1="5.32929" y1="8.18625" x2="5.32929" y2="14.6094" gradientUnits="userSpaceOnUse">
<stop stop-color="#8959DF"/>
<stop offset="1" stop-color="#512DBC"/>
</linearGradient>
<linearGradient id="paint8_linear_0_3843" x1="4.65293" y1="8.18625" x2="4.65293" y2="9.43823" gradientUnits="userSpaceOnUse">
<stop stop-color="#8959DF"/>
<stop offset="1" stop-color="#512DBC"/>
</linearGradient>
<linearGradient id="paint9_linear_0_3843" x1="6.83844" y1="8.18625" x2="6.83844" y2="12.2368" gradientUnits="userSpaceOnUse">
<stop stop-color="#8959DF"/>
<stop offset="1" stop-color="#512DBC"/>
</linearGradient>
<clipPath id="clip0_0_3843">
<rect width="16" height="12.625" fill="white" transform="translate(0 2)"/>
</clipPath>
</defs>
</svg>
