<svg width="44" height="20" viewBox="0 0 44 20" fill="none" xmlns="http://www.w3.org/2000/svg">
<path fill-rule="evenodd" clip-rule="evenodd" d="M9.32483 0.358032C10.6153 0.358032 11.6616 1.38316 11.6616 2.64776C11.6616 3.63786 11.0201 4.48127 10.1222 4.80069L10.1224 16.662C11.7939 16.5897 13.3482 16.29 14.7292 15.7933L14.7292 6.69975C13.8313 6.38033 13.1899 5.53692 13.1899 4.54682C13.1899 3.28222 14.2361 2.2571 15.5266 2.2571C16.8171 2.2571 17.8634 3.28222 17.8634 4.54682C17.8634 5.53692 17.2219 6.38033 16.324 6.69975L16.3241 15.0916C17.8595 14.2782 19.0896 13.1774 19.9053 11.8479C19.3519 11.3592 19.004 10.6515 19.004 9.8642C19.004 8.3898 20.2238 7.19466 21.7284 7.19466C21.8519 7.19466 21.9736 7.20272 22.0928 7.21833C24.1678 3.68304 28.617 1.5418 33.9255 1.48767L34.132 1.48662H42.6594C43.0998 1.48662 43.4568 1.83643 43.4568 2.26795C43.4568 2.68405 43.1248 3.02419 42.7063 3.04795L42.6594 3.04928H41.1311L41.1312 14.9277C42.0291 15.2471 42.6705 16.0905 42.6705 17.0806C42.6705 18.3451 41.6242 19.3704 40.3337 19.3704C39.0433 19.3704 37.997 18.3451 37.997 17.0806C37.997 16.0904 38.6386 15.2469 39.5366 14.9276L39.5364 3.04928H34.9292L34.9294 14.9277C35.8273 15.2471 36.4687 16.0905 36.4687 17.0806C36.4687 18.3451 35.4224 19.3704 34.132 19.3704C32.8415 19.3704 31.7952 18.3451 31.7952 17.0806C31.7952 16.0905 32.4366 15.2471 33.3345 14.9277L33.3344 3.0664C31.6629 3.13871 30.1085 3.43841 28.7275 3.93515L28.7276 13.0286C29.6255 13.348 30.2669 14.1914 30.2669 15.1816C30.2669 16.4461 29.2206 17.4713 27.9302 17.4713C26.6397 17.4713 25.5934 16.4461 25.5934 15.1816C25.5934 14.1914 26.2349 13.348 27.1327 13.0286L27.1327 4.6368C25.5973 5.45017 24.3672 6.55103 23.5515 7.88046C24.1049 8.36915 24.4527 9.07685 24.4527 9.8642C24.4527 11.3385 23.233 12.5337 21.7284 12.5337C21.6048 12.5337 21.4832 12.5257 21.364 12.5101C19.289 16.0454 14.8398 18.1866 9.53131 18.2407L9.32483 18.2418H0.797372C0.356996 18.2418 0 17.892 0 17.4605C0 17.0444 0.331951 16.7042 0.750521 16.6805L0.797372 16.6791L2.32567 16.679L2.32567 4.8007C1.42778 4.48129 0.786298 3.63787 0.786298 2.64776C0.786298 1.38316 1.83253 0.358032 3.12304 0.358032C4.41355 0.358032 5.45978 1.38316 5.45978 2.64776C5.45978 3.63778 4.81843 4.48112 3.92068 4.80061L3.92041 16.679H8.52736L8.52742 4.80069C7.62954 4.48127 6.98808 3.63786 6.98808 2.64776C6.98808 1.38316 8.03432 0.358032 9.32483 0.358032Z" fill="url(#paint0_linear_645_1700)"/>
<defs>
<linearGradient id="paint0_linear_645_1700" x1="42.6808" y1="19.3704" x2="29.135" y2="-12.159" gradientUnits="userSpaceOnUse">
<stop stop-color="#FF0050"/>
<stop offset="0.714448" stop-color="#7000FF"/>
<stop offset="1" stop-color="#0027FF"/>
</linearGradient>
</defs>
</svg>
