<svg width="44" height="20" viewBox="0 0 44 20" fill="none" xmlns="http://www.w3.org/2000/svg">
<path fill-rule="evenodd" clip-rule="evenodd" d="M9.32483 0.358398C10.6153 0.358398 11.6616 1.38353 11.6616 2.64813C11.6616 3.63822 11.0201 4.48163 10.1222 4.80105L10.1224 16.6624C11.7939 16.5901 13.3482 16.2904 14.7292 15.7936L14.7292 6.70012C13.8313 6.3807 13.1899 5.53729 13.1899 4.54719C13.1899 3.28259 14.2361 2.25746 15.5266 2.25746C16.8171 2.25746 17.8634 3.28259 17.8634 4.54719C17.8634 5.53729 17.2219 6.3807 16.324 6.70012L16.3241 15.092C17.8595 14.2786 19.0896 13.1777 19.9053 11.8483C19.3519 11.3596 19.004 10.6519 19.004 9.86457C19.004 8.39016 20.2238 7.19503 21.7284 7.19503C21.8519 7.19503 21.9736 7.20309 22.0928 7.2187C24.1678 3.68341 28.617 1.54216 33.9255 1.48804L34.132 1.48699H42.6594C43.0998 1.48699 43.4568 1.8368 43.4568 2.26831C43.4568 2.68442 43.1248 3.02455 42.7063 3.04832L42.6594 3.04964H41.1311L41.1312 14.9281C42.0291 15.2475 42.6705 16.0908 42.6705 17.081C42.6705 18.3455 41.6242 19.3707 40.3337 19.3707C39.0433 19.3707 37.997 18.3455 37.997 17.081C37.997 16.0907 38.6386 15.2473 39.5366 14.928L39.5364 3.04964H34.9292L34.9294 14.9281C35.8273 15.2475 36.4687 16.0908 36.4687 17.081C36.4687 18.3455 35.4224 19.3707 34.132 19.3707C32.8415 19.3707 31.7952 18.3455 31.7952 17.081C31.7952 16.0908 32.4366 15.2475 33.3345 14.9281L33.3344 3.06677C31.6629 3.13908 30.1085 3.43878 28.7275 3.93552L28.7276 13.029C29.6255 13.3484 30.2669 14.1918 30.2669 15.182C30.2669 16.4464 29.2206 17.4717 27.9302 17.4717C26.6397 17.4717 25.5934 16.4464 25.5934 15.182C25.5934 14.1918 26.2349 13.3484 27.1327 13.029L27.1327 4.63716C25.5973 5.45054 24.3672 6.5514 23.5515 7.88083C24.1049 8.36951 24.4527 9.07722 24.4527 9.86457C24.4527 11.3389 23.233 12.5341 21.7284 12.5341C21.6048 12.5341 21.4832 12.5261 21.364 12.5104C19.289 16.0457 14.8398 18.187 9.53131 18.2411L9.32483 18.2422H0.797372C0.356996 18.2422 0 17.8923 0 17.4608C0 17.0447 0.331951 16.7046 0.750521 16.6808L0.797372 16.6795L2.32567 16.6794L2.32567 4.80107C1.42778 4.48166 0.786298 3.63824 0.786298 2.64813C0.786298 1.38353 1.83253 0.358398 3.12304 0.358398C4.41355 0.358398 5.45978 1.38353 5.45978 2.64813C5.45978 3.63814 4.81843 4.48149 3.92068 4.80097L3.92041 16.6794H8.52736L8.52742 4.80105C7.62954 4.48163 6.98808 3.63822 6.98808 2.64813C6.98808 1.38353 8.03432 0.358398 9.32483 0.358398Z" fill="#FF0083"/>
</svg>
