<svg width="36" height="36" viewBox="0 0 36 36" fill="none" xmlns="http://www.w3.org/2000/svg">
        <path fill-rule="evenodd" clip-rule="evenodd"
                d="M0 17.9976V18C0 27.9411 8.05888 36 18 36C27.9411 36 36 27.9411 36 18C36 8.05888 27.9411 0 18 0C8.05981 0 0.00132155 8.05741 0 17.9976ZM15.1451 25H17.6983L20.8472 11H18.2476L15.1451 25ZM13.675 15.702V12.8824L6 16.9162V19.1164L13.675 23.0768V20.2573L8.80077 18.0489V17.9593L13.675 15.702ZM27.1992 17.9593L22.325 15.702V12.8824L30 16.9162V19.1083L22.325 23.0768V20.2573L27.1992 18.0407V17.9593Z"
                fill="white" />
</svg>