<svg width="26" height="25" viewBox="0 0 26 25" fill="none" xmlns="http://www.w3.org/2000/svg">
<path opacity="0.5" d="M13 0C5.82029 0 0 5.64963 0 12.6188C0 18.2372 3.78312 22.9971 9.01129 24.6316C9.06358 24.6083 9.12658 24.5863 9.20354 24.5676C9.6637 24.4559 9.6637 24.2326 9.6637 24.2326V21.6642C7.82298 22.1108 5.98229 21.4408 5.63715 20.6591C5.29202 19.8774 4.37166 18.5374 4.37166 18.5374C3.10616 17.979 3.4513 17.644 3.4513 17.644C4.60174 17.0857 5.75218 18.5374 5.75218 18.5374C5.75218 18.5374 6.3274 19.6541 7.47784 20.1008C8.62829 20.5474 9.77873 19.8774 9.77873 19.8774C9.66367 18.7607 10.469 18.0907 10.469 18.0907C8.51326 18.0907 5.48049 17.2051 4.83182 13.8472C4.14154 10.2737 5.98226 8.59866 5.98226 8.59866C5.17696 7.14693 6.09732 5.24853 6.09732 5.24853C8.16812 5.24853 9.6637 6.58858 9.6637 6.58858C10.469 6.14193 13.1151 6.14193 13.1151 6.14193C13.1151 6.14193 15.7611 6.14193 16.5664 6.5886C16.5664 6.5886 18.062 5.24856 20.1328 5.24856C20.1328 5.24856 21.0531 7.14696 20.2478 8.59869C20.2478 8.59869 22.0885 10.2738 21.3983 13.8472C20.7496 17.2052 17.7169 18.0907 15.7611 18.0907C15.7611 18.0907 16.5411 18.7555 16.5664 19.8775C16.5765 20.3249 16.5664 21.6642 16.5664 21.6642V24.2326C16.5664 24.2326 16.5664 24.456 17.0265 24.5677C17.058 24.5753 17.0869 24.5835 17.1141 24.5921C22.2774 22.9212 26 18.1923 26 12.6189C26 5.64966 20.1797 0 13 0Z" fill="url(#paint0_linear_531_9293)"/>
<defs>
<linearGradient id="paint0_linear_531_9293" x1="25.5357" y1="24.6316" x2="1.40484" y2="-1.30694" gradientUnits="userSpaceOnUse">
<stop stop-color="#FF0050"/>
<stop offset="0.714448" stop-color="#7000FF"/>
<stop offset="1" stop-color="#0027FF"/>
</linearGradient>
</defs>
</svg>
