<svg width="27" height="23" viewBox="0 0 27 23" fill="none" xmlns="http://www.w3.org/2000/svg">
<path opacity="0.5" d="M27 0.489933L24.8472 2.69944C24.6588 2.85314 24.5691 3.10291 24.605 3.34307V19.6069C24.5691 19.8567 24.6588 20.1065 24.8472 20.2506L26.9551 22.4601V22.95H16.3704V22.4793L18.5502 20.2121C18.7654 19.9816 18.7654 19.9143 18.7654 19.5685V6.41716L12.7017 22.902H11.8854L4.82591 6.41716V17.4647C4.76312 17.9258 4.91562 18.3965 5.2206 18.7327L8.05515 22.412V22.902H0V22.412L2.83455 18.7327C3.13953 18.3965 3.27409 17.9258 3.20233 17.4647V4.68799C3.23821 4.33255 3.11262 3.98671 2.86146 3.74655L0.340864 0.489933V0H8.17176L14.2176 14.2177L19.5369 0.00960646H27V0.489933Z" fill="url(#paint0_linear_531_9294)"/>
<defs>
<linearGradient id="paint0_linear_531_9294" x1="26.5179" y1="22.95" x2="4.33873" y2="-3.62152" gradientUnits="userSpaceOnUse">
<stop stop-color="#FF0050"/>
<stop offset="0.714448" stop-color="#7000FF"/>
<stop offset="1" stop-color="#0027FF"/>
</linearGradient>
</defs>
</svg>
