<?xml version="1.0" encoding="UTF-8"?>
<svg width="256px" height="256px" viewBox="0 0 256 256" version="1.1" xmlns="http://www.w3.org/2000/svg" xmlns:xlink="http://www.w3.org/1999/xlink">
    <title>Crab-Color</title>
    <g id="Crab-Color" stroke="none" stroke-width="1" fill="none" fill-rule="evenodd">
        <path d="M201.874452,77.8181818 C206.684032,77.8181818 210.582968,81.7255149 210.582968,86.5454545 C210.582968,91.2640954 206.846195,95.1080864 202.17646,95.2675773 L191.5365,111.26153 L191.419887,111.43385 C189.023534,114.915225 185.095082,117.022198 180.875371,117.089259 L180.667615,117.090909 L167.771232,117.090244 C168.979361,119.861184 169.908636,122.782166 170.523511,125.817565 L197.945092,125.818182 L198.085665,125.815914 C199.441342,125.772144 200.699859,125.097155 201.488194,123.991013 L201.568053,123.875055 L211.813065,108.474443 C211.031921,107.166056 210.582968,105.635571 210.582968,104 C210.582968,99.1800604 214.481903,95.2727273 219.291484,95.2727273 C224.101064,95.2727273 228,99.1800604 228,104 C228,108.766375 224.187242,112.640315 219.451491,112.725829 L208.813977,128.716075 L208.697364,128.888396 C206.301011,132.36977 202.372559,134.476743 198.152848,134.543804 L197.945092,134.545455 L171.394426,134.545018 C171.394645,137.534465 171.094765,140.453284 170.523511,143.273344 L197.945092,143.272727 C202.243345,143.272727 206.261727,145.391339 208.697364,148.929786 L208.813977,149.102106 L219.451491,165.092353 C224.187242,165.177867 228,169.051807 228,173.818182 C228,178.638121 224.101064,182.545455 219.291484,182.545455 C214.481903,182.545455 210.582968,178.638121 210.582968,173.818182 C210.582968,172.182611 211.031921,170.652125 211.813065,169.343738 L201.568053,153.943126 C200.786538,152.768329 199.488089,152.047547 198.085665,152.002268 L197.945092,152 L167.771232,152.000665 C166.412772,155.116404 164.701743,158.042437 162.688684,160.728118 L180.528059,160.727273 C184.826313,160.727273 188.844695,162.845885 191.280332,166.384331 L191.396945,166.556652 L202.034458,182.546898 C206.77021,182.632413 210.582968,186.506352 210.582968,191.272727 C210.582968,196.092667 206.684032,200 201.874452,200 C197.064871,200 193.165936,196.092667 193.165936,191.272727 C193.165936,189.637157 193.614889,188.106671 194.396033,186.798284 L184.151021,171.397672 C183.369506,170.222874 182.071057,169.502093 180.668633,169.456814 L180.528059,169.454545 L153.980627,169.455473 C146.702747,174.934858 137.655775,178.181818 127.852065,178.181818 C118.048354,178.181818 109.001382,174.934858 101.723503,169.455473 L75.4719405,169.454545 L75.3313668,169.456814 C73.9756903,169.500584 72.717173,170.175573 71.9288381,171.281714 L71.8489788,171.397672 L61.6042278,186.798721 C62.3852105,188.107011 62.8340644,189.637338 62.8340644,191.272727 C62.8340644,196.092667 58.935129,200 54.1255483,200 C49.3159677,200 45.4170322,196.092667 45.4170322,191.272727 C45.4170322,186.506216 49.230009,182.632191 53.9659487,182.546891 L64.6030554,166.556652 L64.719668,166.384331 C67.1160209,162.902957 71.0444734,160.795984 75.2641845,160.728923 L75.4719405,160.727273 L93.0154452,160.728118 C91.0023864,158.042437 89.2913576,155.116404 87.9328974,152.000665 L58.0549083,152 L57.9143346,152.002268 C56.5586581,152.046038 55.3001408,152.721027 54.5118058,153.827168 L54.4319466,153.943126 L44.1871955,169.344175 C44.9681783,170.652466 45.4170322,172.182793 45.4170322,173.818182 C45.4170322,178.638121 41.5180967,182.545455 36.7085161,182.545455 C31.8989355,182.545455 28,178.638121 28,173.818182 C28,169.05167 31.8129768,165.177645 36.5489164,165.092345 L47.1860231,149.102106 L47.3026358,148.929786 C49.6989887,145.448411 53.6274412,143.341439 57.8471523,143.274378 L58.0549083,143.272727 L85.1806184,143.273344 C84.6429677,140.61917 84.3457033,137.877514 84.3125914,135.072193 L84.3094842,134.545017 L58.0549083,134.545455 C53.7566547,134.545455 49.7382732,132.426842 47.3026358,128.888396 L47.1860231,128.716075 L36.5489164,112.725837 C31.8129768,112.640537 28,108.766512 28,104 C28,99.1800604 31.8989355,95.2727273 36.7085161,95.2727273 C41.5180967,95.2727273 45.4170322,99.1800604 45.4170322,104 C45.4170322,105.635389 44.9681783,107.165716 44.1871955,108.474007 L54.4319466,123.875055 C55.2134619,125.049853 56.5119108,125.770634 57.9143346,125.815914 L58.0549083,125.818182 L85.1806184,125.817565 C85.7954936,122.782166 86.7247689,119.861184 87.9328974,117.090244 L75.3323852,117.090909 C71.0341317,117.090909 67.0157502,114.972297 64.5801128,111.43385 L64.4635001,111.26153 L53.823547,95.2675777 C49.153809,95.1080903 45.4170322,91.264098 45.4170322,86.5454545 C45.4170322,81.7255149 49.3159677,77.8181818 54.1255483,77.8181818 C58.935129,77.8181818 62.8340644,81.7255149 62.8340644,86.5454545 C62.8340644,88.2268631 62.359594,89.7972141 61.5375105,91.1293769 L71.7094235,106.42051 C72.4909388,107.595308 73.7893877,108.316089 75.1918115,108.361368 L75.3323852,108.363636 L93.0154452,108.362791 C100.959447,97.7644644 113.606897,90.9090909 127.852065,90.9090909 C142.097232,90.9090909 154.744682,97.7644644 162.688684,108.362791 L180.667615,108.363636 L180.808188,108.361368 C182.163865,108.317598 183.422382,107.642609 184.210717,106.536468 L184.290576,106.42051 L194.462489,91.1293769 C193.640406,89.7972141 193.165936,88.2268631 193.165936,86.5454545 C193.165936,81.7255149 197.064871,77.8181818 201.874452,77.8181818 Z M127.852065,99.6363636 C108.613742,99.6363636 93.0180003,115.265696 93.0180003,134.545455 C93.0180003,153.825213 108.613742,169.454545 127.852065,169.454545 C147.090387,169.454545 162.686129,153.825213 162.686129,134.545455 C162.686129,115.265696 147.090387,99.6363636 127.852065,99.6363636 Z M127.852065,108.363636 C142.280807,108.363636 153.977613,120.085636 153.977613,134.545455 C153.977613,149.005273 142.280807,160.727273 127.852065,160.727273 C113.423323,160.727273 101.726516,149.005273 101.726516,134.545455 C101.726516,120.085636 113.423323,108.363636 127.852065,108.363636 Z M158.331871,56 L158.619894,56.0023385 C168.10621,56.1564756 175.748903,63.911065 175.748903,73.4545455 C175.748903,83.0944247 167.951032,90.9090909 158.331871,90.9090909 C148.71271,90.9090909 140.914839,83.0944247 140.914839,73.4545455 C140.914839,68.7177082 142.797663,64.4215751 145.854218,61.2767674 L146.01617,61.1123181 L158.331871,73.4545455 L158.331871,56 Z M97.3722583,56 L97.3722583,73.4545455 L109.68796,61.1123181 C112.839823,64.2709695 114.789291,68.6346058 114.789291,73.4545455 C114.789291,83.0944247 106.99142,90.9090909 97.3722583,90.9090909 C87.7530971,90.9090909 79.9552261,83.0944247 79.9552261,73.4545455 C79.9552261,63.911065 87.5979196,56.1564756 97.0842359,56.0023385 L97.3722583,56 Z" id="形状结合" fill="#FFFFFF" fill-rule="nonzero"></path>
        <g id="Crab-2" transform="translate(28.000000, 56.000000)" fill="#512DBC">
            <path d="M173.874452,21.8181818 C178.684032,21.8181818 182.582968,25.7255149 182.582968,30.5454545 C182.582968,35.2640953 178.846195,39.1080863 174.17646,39.2675775 L163.536499,55.2615299 L163.419887,55.4338503 C160.984249,58.9722969 156.965868,61.0909091 152.667614,61.0909091 L152.667614,61.0909091 L139.771422,61.0906796 C140.979516,63.8616227 141.908757,66.7826051 142.523599,69.818002 L169.945091,69.8181818 L170.085665,69.8159136 C171.488089,69.7706343 172.786538,69.0498532 173.568053,67.8750554 L173.568053,67.8750554 L183.813065,52.4744435 C183.031921,51.1660564 182.582968,49.6355708 182.582968,48 C182.582968,43.1800604 186.481903,39.2727273 191.291484,39.2727273 C196.101065,39.2727273 200,43.1800604 200,48 C200,52.7663751 196.187242,56.6403146 191.451491,56.7258292 L180.813976,72.7160753 L180.697364,72.8883958 C178.261726,76.4268423 174.243345,78.5454545 169.945091,78.5454545 L169.945091,78.5454545 L143.394645,78.5454545 L143.394645,78.5454545 C143.394645,81.5344652 143.094765,84.4532841 142.523511,87.2733439 L169.945091,87.2727273 C174.243345,87.2727273 178.261726,89.3913395 180.697364,92.929786 L180.813976,93.1021065 L191.451491,109.092353 C196.187242,109.177867 200,113.051807 200,117.818182 C200,122.638121 196.101065,126.545455 191.291484,126.545455 C186.481903,126.545455 182.582968,122.638121 182.582968,117.818182 C182.582968,116.182611 183.031921,114.652125 183.813065,113.343738 L173.568053,97.9431264 C172.786538,96.7683286 171.488089,96.0475475 170.085665,96.0022682 L169.945091,96 L139.771232,96.000665 C138.412772,99.1164044 136.701743,102.042437 134.688684,104.728118 L152.528059,104.727273 C156.826313,104.727273 160.844694,106.845885 163.280332,110.384331 L163.396944,110.556652 L174.034458,126.546898 C178.77021,126.632413 182.582968,130.506352 182.582968,135.272727 C182.582968,140.092667 178.684032,144 173.874452,144 C169.064871,144 165.165936,140.092667 165.165936,135.272727 C165.165936,133.637157 165.614889,132.106671 166.396033,130.798284 L156.151021,115.397672 C155.369505,114.222874 154.071057,113.502093 152.668633,113.456814 L152.528059,113.454545 L125.980627,113.455473 C118.702747,118.934858 109.655775,122.181818 99.8520648,122.181818 C90.0483543,122.181818 81.0013822,118.934858 73.7235029,113.455473 L47.4719406,113.454545 L47.3313668,113.456814 C45.928943,113.502093 44.6304941,114.222874 43.8489788,115.397672 L43.8489788,115.397672 L33.6042276,130.798721 C34.3852107,132.107011 34.8340644,133.637338 34.8340644,135.272727 C34.8340644,140.092667 30.935129,144 26.1255483,144 C21.3159677,144 17.4170322,140.092667 17.4170322,135.272727 C17.4170322,130.506216 21.230009,126.632191 25.9659485,126.546891 L36.6030554,110.556652 L36.7196681,110.384331 C39.1553055,106.845885 43.173687,104.727273 47.4719406,104.727273 L47.4719406,104.727273 L65.0154452,104.728118 C63.0023864,102.042437 61.2913576,99.1164044 59.9328975,96.000665 L30.0549084,96 L29.9143347,96.0022682 C28.5119107,96.0475475 27.2134621,96.7683286 26.4319467,97.9431264 L26.4319467,97.9431264 L16.1871954,113.344175 C16.9681785,114.652466 17.4170322,116.182793 17.4170322,117.818182 C17.4170322,122.638121 13.5180967,126.545455 8.70851611,126.545455 C3.89893547,126.545455 0,122.638121 0,117.818182 C0,113.05167 3.81297677,109.177645 8.54891627,109.092345 L19.1860233,93.1021065 L19.302636,92.929786 C21.7382733,89.3913395 25.7566549,87.2727273 30.0549084,87.2727273 L30.0549084,87.2727273 L57.1806184,87.2733439 C56.6093646,84.4532841 56.3094842,81.5344652 56.3094842,78.5454545 L30.0549084,78.5454545 C25.7566549,78.5454545 21.7382733,76.4268423 19.302636,72.8883958 L19.1860233,72.7160753 L8.54891627,56.7258367 C3.81297677,56.6405367 0,52.7665117 0,48 C0,43.1800604 3.89893547,39.2727273 8.70851611,39.2727273 C13.5180967,39.2727273 17.4170322,43.1800604 17.4170322,48 C17.4170322,49.6353888 16.9681785,51.1657161 16.1871954,52.4740067 L26.4319467,67.8750554 C27.2134621,69.0498532 28.5119107,69.7706343 29.9143347,69.8159136 L30.0549084,69.8181818 L57.18053,69.818002 C57.7954044,66.7824458 58.724711,63.8613168 59.9328975,61.0902441 L47.3323853,61.0909091 C43.0341317,61.0909091 39.0157502,58.9722969 36.5801128,55.4338503 L36.4635001,55.2615299 L25.8235471,39.2675777 C21.1538091,39.1080905 17.4170322,35.2640979 17.4170322,30.5454545 C17.4170322,25.7255149 21.3159677,21.8181818 26.1255483,21.8181818 C30.935129,21.8181818 34.8340644,25.7255149 34.8340644,30.5454545 C34.8340644,32.2268629 34.3595939,33.7972141 33.5375107,35.1293769 L43.7094236,50.42051 C44.4909389,51.5953078 45.7893878,52.3160889 47.1918115,52.3613681 L47.3323853,52.3636364 L65.0154452,52.3627911 C72.9594473,41.7644642 85.6068975,34.9090909 99.8520648,34.9090909 C114.097232,34.9090909 126.744682,41.7644642 134.688684,52.3627911 L152.667614,52.3636364 L152.808188,52.3613681 C154.210612,52.3160889 155.509061,51.5953078 156.290576,50.42051 L156.290576,50.42051 L166.462489,35.1293769 C165.640406,33.7972141 165.165936,32.2268629 165.165936,30.5454545 C165.165936,25.7255149 169.064871,21.8181818 173.874452,21.8181818 Z M99.8520648,43.6363636 C80.6137422,43.6363636 65.0180003,59.265696 65.0180003,78.5454545 C65.0180003,97.8252131 80.6137422,113.454545 99.8520648,113.454545 C119.090387,113.454545 134.686129,97.8252131 134.686129,78.5454545 C134.686129,59.265696 119.090387,43.6363636 99.8520648,43.6363636 Z M99.8520648,52.3636364 C114.280807,52.3636364 125.977613,64.0856356 125.977613,78.5454545 C125.977613,93.0052735 114.280807,104.727273 99.8520648,104.727273 C85.4233228,104.727273 73.7265164,93.0052735 73.7265164,78.5454545 C73.7265164,64.0856356 85.4233228,52.3636364 99.8520648,52.3636364 Z M130.331871,0 L130.619894,0.0023384104 C140.10621,0.156475845 147.748903,7.91106497 147.748903,17.4545455 C147.748903,27.0944247 139.951032,34.9090909 130.331871,34.9090909 C120.71271,34.9090909 112.914839,27.0944247 112.914839,17.4545455 C112.914839,12.6346058 114.864307,8.27096945 118.01617,5.11231802 L118.01617,5.11231802 L130.331871,17.4545455 L130.331871,0 Z M69.3722584,0 L69.3722584,17.4545455 L79.0346409,2.93003468 C83.7100621,6.05997709 86.7892906,11.3968905 86.7892906,17.4545455 C86.7892906,27.0944247 78.9914197,34.9090909 69.3722584,34.9090909 C59.7530971,34.9090909 51.9552262,27.0944247 51.9552262,17.4545455 C51.9552262,7.81466618 59.7530971,0 69.3722584,0 Z" id="形状结合"></path>
        </g>
    </g>
</svg>