<svg width="19" height="17" viewBox="0 0 19 17" fill="none" xmlns="http://www.w3.org/2000/svg">
<path opacity="0.5" d="M12.9186 0.0230394L12.4379 0.0912774C12.1433 0.159515 11.8487 0.261872 11.5695 0.381287V0.381287C10.4668 0.911614 9.65235 1.97794 9.36753 3.26433C9.21246 3.92965 9.21246 4.62909 9.36753 5.27735C8.77827 5.27735 8.189 5.19205 7.63074 5.02146V5.02146C5.88974 4.59397 4.26407 3.72339 2.88431 2.4796V2.4796C2.45992 2.11346 2.07453 1.6957 1.7355 1.23426V1.23426C1.60468 1.09241 1.48535 0.93829 1.37883 0.773659V0.773659C1.19739 1.12242 1.05671 1.49498 0.960142 1.88252L0.960142 1.88252C0.666788 3.26256 0.989374 4.71377 1.82854 5.78914C2.03013 6.06209 2.34027 6.23269 2.54186 6.47152H2.54186C2.36508 6.50554 2.18327 6.4879 2.01462 6.42034H2.01462C1.73283 6.36914 1.45714 6.2833 1.19275 6.16445L0.77406 5.99385V5.99385C0.726034 7.49772 1.42765 8.9106 2.60389 9.6787C2.97606 9.98577 3.41026 10.1734 3.87547 10.2417C3.62735 10.4805 2.52636 10.3781 2.13868 10.327C2.52636 11.6235 3.44127 12.63 4.60559 13.0735C4.97776 13.2271 5.36544 13.2953 5.75311 13.2953V13.2953C5.43104 13.5923 5.07687 13.8444 4.69863 14.0459V14.0459C3.96973 14.4835 3.18585 14.7997 2.37258 14.9842C2.01591 15.0695 1.64374 15.0524 1.24056 15.1207H1.24056C0.826603 15.1548 0.410474 15.1376 0 15.0695L0.341156 15.2913C0.697818 15.5301 1.05448 15.7348 1.44215 15.9054C2.18649 16.2466 2.94634 16.5195 3.72169 16.7243C5.55152 17.1507 7.46017 17.0825 9.25899 16.5195C13.3231 15.1207 15.8973 11.8452 16.8755 7.01742C17.0306 6.11327 17.0926 5.175 17.0616 4.25379L17.6819 3.69083V3.69083C18.1974 3.21209 18.6421 2.64808 19 2.019V2.019C18.2999 2.35932 17.5579 2.58353 16.798 2.68432C16.9531 2.59902 17.0926 2.47961 17.2322 2.34313C17.8215 1.81429 18.2557 1.11485 18.4883 0.330118L18.0075 0.620128V0.620128C17.3782 0.988389 16.6965 1.23643 15.9916 1.35368V1.35368C15.2024 0.432184 14.0847 -0.0607081 12.9355 0.00599045V0.0230499H12.9187L12.9186 0.0230394Z" fill="#FF0083"/>
</svg>
