<svg width="36" height="36" viewBox="0 0 36 36" fill="none" xmlns="http://www.w3.org/2000/svg">
<path d="M36 18C36 8.05887 27.9411 0 18 0C8.05887 0 0 8.05887 0 18C0 27.9411 8.05887 36 18 36C27.9411 36 36 27.9411 36 18Z" fill="#F9F9F9"/>
<path fill-rule="evenodd" clip-rule="evenodd" d="M27.3497 11.6293C27.9584 11.6293 28.4519 12.1253 28.4519 12.7372C28.4519 13.3363 27.979 13.8243 27.388 13.8445L26.0413 15.875L26.0266 15.8969C25.7183 16.3461 25.2097 16.6151 24.6657 16.6151L23.0336 16.615C23.1865 16.9668 23.3041 17.3376 23.3819 17.723L26.8524 17.723L26.8702 17.7227C27.0477 17.717 27.212 17.6255 27.311 17.4763L28.6076 15.5212C28.5087 15.3551 28.4519 15.1608 28.4519 14.9531C28.4519 14.3412 28.9454 13.8452 29.5541 13.8452C30.1628 13.8452 30.6562 14.3412 30.6562 14.9531C30.6562 15.5582 30.1737 16.05 29.5743 16.0609L28.228 18.0909L28.2133 18.1128C27.905 18.562 27.3964 18.831 26.8524 18.831H23.4921C23.4921 19.2104 23.4542 19.581 23.3819 19.939L26.8524 19.9389C27.3964 19.9389 27.905 20.2079 28.2133 20.6571L28.228 20.679L29.5743 22.709C30.1737 22.7198 30.6562 23.2117 30.6562 23.8168C30.6562 24.4287 30.1628 24.9247 29.5541 24.9247C28.9454 24.9247 28.4519 24.4287 28.4519 23.8168C28.4519 23.6091 28.5087 23.4148 28.6076 23.2487L27.311 21.2936C27.212 21.1444 27.0477 21.0529 26.8702 21.0472L26.8524 21.0469L23.0335 21.047C22.8616 21.4425 22.6451 21.814 22.3903 22.1549L24.6481 22.1548C25.1921 22.1548 25.7007 22.4238 26.0089 22.873L26.0237 22.8949L27.37 24.9249C27.9694 24.9358 28.4519 25.4276 28.4519 26.0327C28.4519 26.6446 27.9584 27.1406 27.3497 27.1406C26.741 27.1406 26.2476 26.6446 26.2476 26.0327C26.2476 25.825 26.3044 25.6307 26.4032 25.4646L25.1066 23.5095C25.0077 23.3603 24.8434 23.2688 24.6659 23.2631L24.6481 23.2628L21.2882 23.2629C20.3671 23.9585 19.2221 24.3707 17.9813 24.3707C16.7405 24.3707 15.5955 23.9585 14.6744 23.2629L11.3519 23.2628L11.3341 23.2631C11.1566 23.2688 10.9923 23.3603 10.8934 23.5095L9.59679 25.4647C9.69563 25.6308 9.75244 25.8251 9.75244 26.0327C9.75244 26.6446 9.25898 27.1406 8.65026 27.1406C8.04155 27.1406 7.54809 26.6446 7.54809 26.0327C7.54809 25.4275 8.03067 24.9357 8.63007 24.9249L9.97632 22.8949L9.99108 22.873C10.2993 22.4238 10.8079 22.1548 11.3519 22.1548L13.5723 22.1549C13.3175 21.814 13.1009 21.4425 12.929 21.047L9.14757 21.0469L9.12978 21.0472C8.95229 21.0529 8.78795 21.1444 8.68904 21.2936L7.39244 23.2488C7.49129 23.4149 7.54809 23.6091 7.54809 23.8168C7.54809 24.4287 7.05463 24.9247 6.44592 24.9247C5.83721 24.9247 5.34375 24.4287 5.34375 23.8168C5.34375 23.2116 5.82633 22.7198 6.42572 22.709L7.77198 20.679L7.78674 20.6571C8.095 20.2079 8.60358 19.9389 9.14757 19.9389L12.5807 19.939C12.5084 19.581 12.4704 19.2104 12.4704 18.831H9.14757C8.60358 18.831 8.095 18.562 7.78674 18.1128L7.77198 18.0909L6.42572 16.0609C5.82633 16.0501 5.34375 15.5582 5.34375 14.9531C5.34375 14.3412 5.83721 13.8452 6.44592 13.8452C7.05463 13.8452 7.54809 14.3412 7.54809 14.9531C7.54809 15.1607 7.49129 15.355 7.39244 15.5211L8.68904 17.4763C8.78795 17.6255 8.95229 17.717 9.12978 17.7227L9.14757 17.723L12.5807 17.723C12.6585 17.3376 12.7761 16.9668 12.929 16.615L11.3343 16.6151C10.7903 16.6151 10.2817 16.3461 9.97342 15.8969L9.95866 15.875L8.61204 13.8445C8.02103 13.8243 7.54809 13.3363 7.54809 12.7372C7.54809 12.1253 8.04155 11.6293 8.65026 11.6293C9.25898 11.6293 9.75244 12.1253 9.75244 12.7372C9.75244 12.9507 9.69239 13.15 9.58834 13.3192L10.8757 15.2604C10.9746 15.4096 11.139 15.5011 11.3165 15.5068L11.3343 15.5071L13.5723 15.507C14.5777 14.1615 16.1784 13.2912 17.9813 13.2912C19.7842 13.2912 21.3849 14.1615 22.3903 15.507L24.6657 15.5071L24.6835 15.5068C24.861 15.5011 25.0254 15.4096 25.1243 15.2604L26.4117 13.3192C26.3076 13.15 26.2476 12.9507 26.2476 12.7372C26.2476 12.1253 26.741 11.6293 27.3497 11.6293ZM17.9813 14.3991C15.5464 14.3991 13.5726 16.3833 13.5726 18.831C13.5726 21.2786 15.5464 23.2628 17.9813 23.2628C20.4161 23.2628 22.39 21.2786 22.39 18.831C22.39 16.3833 20.4161 14.3991 17.9813 14.3991ZM17.9813 15.5071C19.8074 15.5071 21.2878 16.9952 21.2878 18.831C21.2878 20.6667 19.8074 22.1548 17.9813 22.1548C16.1551 22.1548 14.6748 20.6667 14.6748 18.831C14.6748 16.9952 16.1551 15.5071 17.9813 15.5071ZM21.8389 8.85938L21.8753 8.85967C23.0759 8.87924 24.0432 9.86371 24.0432 11.0753C24.0432 12.2991 23.0563 13.2912 21.8389 13.2912C20.6215 13.2912 19.6345 12.2991 19.6345 11.0753C19.6345 10.4634 19.8813 9.9094 20.2802 9.5084L21.8389 11.0753V8.85938ZM14.1237 8.85938V11.0753L15.3466 9.23135C15.9383 9.62871 16.328 10.3062 16.328 11.0753C16.328 12.2991 15.3411 13.2912 14.1237 13.2912C12.9063 13.2912 11.9193 12.2991 11.9193 11.0753C11.9193 9.85147 12.9063 8.85938 14.1237 8.85938Z" fill="#512DBC"/>
</svg>
