<svg width="36" height="36" viewBox="0 0 36 36" fill="none" xmlns="http://www.w3.org/2000/svg">
<path d="M36 18C36 8.05887 27.9411 0 18 0C8.05887 0 0 8.05887 0 18C0 27.9411 8.05887 36 18 36C27.9411 36 36 27.9411 36 18Z" fill="#F9F9F9"/>
<path fill-rule="evenodd" clip-rule="evenodd" d="M9.97248 11.6719C10.8077 11.6719 11.4848 12.3467 11.4848 13.1792C11.4848 13.8309 11.0697 14.3862 10.4886 14.5964L10.4886 22.4046C11.5704 22.357 12.5764 22.1597 13.4702 21.8327L13.4702 15.8466C12.8891 15.6363 12.4739 15.0811 12.4739 14.4293C12.4739 13.5968 13.151 12.922 13.9862 12.922C14.8214 12.922 15.4986 13.5968 15.4986 14.4293C15.4986 15.0811 15.0834 15.6363 14.5023 15.8466L14.5024 21.3708C15.4961 20.8354 16.2922 20.1107 16.8201 19.2356C16.4619 18.9138 16.2368 18.448 16.2368 17.9297C16.2368 16.9591 17.0262 16.1724 18 16.1724C18.08 16.1724 18.1587 16.1777 18.2358 16.1879C19.5787 13.8607 22.4583 12.4511 25.8939 12.4155L26.0275 12.4148H31.5464C31.8315 12.4148 32.0625 12.6451 32.0625 12.9292C32.0625 13.2031 31.8477 13.427 31.5768 13.4426L31.5464 13.4435H30.5573L30.5574 21.2629C31.1385 21.4732 31.5536 22.0284 31.5536 22.6802C31.5536 23.5126 30.8765 24.1875 30.0413 24.1875C29.2061 24.1875 28.529 23.5126 28.529 22.6802C28.529 22.0283 28.9442 21.4731 29.5254 21.2629L29.5252 13.4435H26.5435L26.5436 21.2629C27.1247 21.4732 27.5399 22.0284 27.5399 22.6802C27.5399 23.5126 26.8627 24.1875 26.0275 24.1875C25.1923 24.1875 24.5152 23.5126 24.5152 22.6802C24.5152 22.0284 24.9303 21.4732 25.5114 21.2629L25.5114 13.4548C24.4296 13.5024 23.4236 13.6997 22.5298 14.0267L22.5299 20.0128C23.111 20.2231 23.5261 20.7782 23.5261 21.4301C23.5261 22.2625 22.8489 22.9374 22.0138 22.9374C21.1786 22.9374 20.5014 22.2625 20.5014 21.4301C20.5014 20.7782 20.9166 20.2231 21.4977 20.0128L21.4976 14.4885C20.5039 15.024 19.7078 15.7487 19.1799 16.6238C19.5381 16.9455 19.7632 17.4114 19.7632 17.9297C19.7632 18.9002 18.9738 19.687 18 19.687C17.92 19.687 17.8413 19.6817 17.7642 19.6714C16.4213 21.9987 13.5417 23.4082 10.1061 23.4439L9.97248 23.4446H4.45356C4.16855 23.4446 3.9375 23.2143 3.9375 22.9302C3.9375 22.6563 4.15234 22.4324 4.42323 22.4168L4.45356 22.4159L5.44266 22.4158L5.44266 14.5964C4.86155 14.3862 4.44639 13.831 4.44639 13.1792C4.44639 12.3467 5.1235 11.6719 5.95872 11.6719C6.79393 11.6719 7.47104 12.3467 7.47104 13.1792C7.47104 13.8309 7.05596 14.3861 6.47494 14.5964L6.47477 22.4158H9.45636L9.4564 14.5964C8.8753 14.3862 8.46015 13.8309 8.46015 13.1792C8.46015 12.3467 9.13727 11.6719 9.97248 11.6719Z" fill="#DB378A"/>
</svg>
