<svg width="36" height="36" viewBox="0 0 36 36" fill="none" xmlns="http://www.w3.org/2000/svg">
<path d="M36 18C36 8.05887 27.9411 0 18 0C8.05887 0 0 8.05887 0 18C0 27.9411 8.05887 36 18 36C27.9411 36 36 27.9411 36 18Z" fill="#F9F9F9"/>
<path d="M10.2386 16.8092C10.0875 18.9704 11.716 20.848 13.8822 21.0126L14.1056 21.0296L14.0719 20.8081C14.0032 20.3563 13.9844 19.8852 14.0178 19.4074C14.1879 16.9749 15.6595 15.0987 17.2974 15.1493L17.6478 15.1601L17.45 14.8706C16.7726 13.8792 15.6801 13.2408 14.4565 13.1553C12.2789 13.003 10.3904 14.6388 10.2386 16.8092ZM10.5941 16.834C10.7322 14.8603 12.4502 13.3722 14.4317 13.5108L14.5057 13.5167C15.4663 13.6035 16.3324 14.0649 16.9366 14.7831L16.9566 14.8074L16.9218 14.8114C15.2301 15.0246 13.8315 16.962 13.6623 19.3825L13.654 19.5198C13.6357 19.8853 13.6463 20.2468 13.6851 20.5992L13.6892 20.6338L13.6629 20.6301C11.8163 20.3631 10.4625 18.7167 10.5941 16.834Z" fill="#512DBC"/>
<path d="M24.5108 7.94963C24.7816 8.12181 24.5196 8.55743 24.1822 9.0596L24.1378 9.12547C24.108 9.1696 24.0777 9.21418 24.0474 9.25907L23.9935 9.33894L23.9397 9.41929C23.6002 9.92941 23.2906 10.4592 23.4362 10.8255C23.5304 11.0622 24.7966 10.5688 26.1506 10.0284L26.2563 9.98625C26.2739 9.97921 26.2916 9.97216 26.3092 9.96511L26.4859 9.89453C26.5206 9.88069 26.5552 9.86685 26.5899 9.85303L26.849 9.74991C26.9007 9.72942 26.9522 9.70903 27.0035 9.68878L27.1058 9.64848L27.1597 9.62734L27.2668 9.58546C28.4404 9.12808 29.4473 8.78226 29.5255 9.02807C29.7959 9.87788 29.3768 11.2219 28.8563 12.6351L28.7981 12.7924C28.7786 12.8449 28.7589 12.8975 28.7392 12.9501L28.6799 13.1082C28.6459 13.1985 28.6117 13.289 28.5775 13.3794L28.4752 13.6506C28.1863 14.418 27.9086 15.1762 27.7346 15.8582C27.6937 16.0185 28.0908 16.057 28.6193 16.0583L28.6995 16.0582C28.8753 16.0574 29.0633 16.0532 29.2531 16.0484L29.536 16.0411C29.5642 16.0404 29.5924 16.0397 29.6205 16.0391L29.7044 16.0372C30.3996 16.0225 31.0016 16.032 30.9583 16.2177C30.492 18.2192 29.1786 20.6157 27.0182 23.4073C24.242 26.7625 21.4361 28.44 18.6006 28.44C15.293 28.44 12.4724 27.2234 11.3817 25.5152L7.81131 24.8186C7.71135 25.2599 7.49985 25.6194 7.17637 25.8918C6.74455 26.2554 6.19502 26.395 5.53988 26.3137L5.47815 26.3054L5.32031 26.2827L5.32542 26.1233C5.34757 25.4322 5.58067 24.8925 6.02583 24.5176C6.26749 24.3141 6.54603 24.1808 6.8593 24.1171C6.09114 22.8683 5.70651 21.4922 5.70651 19.9922C5.70651 18.3333 6.177 16.8258 7.11653 15.4747L7.17234 15.3954L7.31749 15.1915L7.46264 15.3954C8.43935 16.7668 8.92847 18.3008 8.92847 19.9922C8.92847 21.4787 8.55075 22.8434 7.79636 24.0832L11.0102 24.7102C10.9374 24.462 10.8994 24.2069 10.8994 23.9465C10.8994 23.7505 10.8953 23.5646 10.8932 23.3874L10.8932 23.3833C10.3607 23.1633 10.0048 22.7818 10.0048 22.3289C10.0048 21.6108 10.8993 21.0722 11.974 21.0722C11.984 21.0722 11.9939 21.0723 12.0038 21.0724C12.1039 21.0116 12.2132 20.9511 12.3322 20.8909C12.6636 20.7234 11.9893 20.3356 11.6158 19.0935C11.4597 18.5742 11.2818 17.3835 11.6158 16.9367C11.9498 16.4898 11.6986 17.1962 12.6904 17.6556C13.0088 17.8031 13.0651 15.6268 14.8396 11.9039C15.0301 11.5041 15.435 10.9382 15.8684 10.414L15.943 10.3246C16.5286 9.62799 17.1465 9.02807 17.3469 9.02807C17.4851 9.02807 17.5097 9.4026 17.5111 9.86267L17.5111 9.94009C17.5109 10.0442 17.5098 10.1518 17.5088 10.2597L17.5079 10.366C17.5031 10.9674 17.5113 11.5444 17.7051 11.5444C18.3634 11.5444 23.8646 7.53869 24.5108 7.94963ZM7.07109 24.4438L7.0437 24.4471C6.73941 24.4885 6.47765 24.6031 6.2554 24.7903C5.94658 25.0503 5.7618 25.4102 5.70174 25.8781L5.69513 25.9348L5.69179 25.9709L5.7273 25.974C6.18186 26.0057 6.5592 25.9079 6.86642 25.6824L6.90446 25.6536L6.9468 25.6192C7.20557 25.4013 7.37725 25.1133 7.46144 24.7504L7.36162 24.7308L7.31749 24.7929L7.17234 24.5891C7.13798 24.5409 7.10424 24.4925 7.07109 24.4438ZM19.355 22.9031C17.9063 23.2181 16.8787 23.506 16.2723 23.7668C15.6746 24.0239 14.8959 24.5129 13.9362 25.2338C13.8045 25.2904 13.7191 25.4204 13.7191 25.5642C13.7191 25.7548 13.8669 25.9107 14.0538 25.9229L14.0773 25.9237H19.4961C19.686 25.9237 19.8414 25.7753 19.8535 25.5878L19.8543 25.5642V23.2335C19.8543 23.1848 19.8444 23.1367 19.8253 23.0919C19.7474 22.9094 19.5368 22.8249 19.355 22.9031ZM7.31744 15.8129L7.27405 15.8787C6.46622 17.1178 6.06291 18.4876 6.06291 19.9922C6.06291 21.4641 6.44887 22.8071 7.22194 24.0248L7.25377 24.0742C7.29576 24.0732 7.33819 24.0731 7.38121 24.0742C8.13793 22.9018 8.53361 21.6126 8.5694 20.2033L8.57131 20.1048L8.57207 19.9922C8.57207 18.5203 8.18611 17.1774 7.41304 15.9597L7.36093 15.8787L7.31744 15.8129ZM11.974 21.4286C11.0705 21.4286 10.3612 21.8557 10.3612 22.3289C10.3612 22.802 11.0705 23.2291 11.974 23.2291C12.8775 23.2291 13.5868 22.802 13.5868 22.3289C13.5868 21.8557 12.8775 21.4286 11.974 21.4286ZM16.2472 17.8486L16.2391 17.8651L15.2594 20.1815C15.222 20.2699 15.5966 20.5381 15.7329 20.5314L15.7457 20.5298L19.3062 19.7703C19.4919 19.7307 19.6132 19.5531 19.5862 19.3672L19.5821 19.3439L19.315 18.0828C19.3065 18.0429 19.2914 18.0048 19.2702 17.97C19.1713 17.8077 18.9647 17.7519 18.7991 17.8387L18.7778 17.8508L15.8831 19.6263L16.5689 18.0056C16.6075 17.9142 16.565 17.8087 16.474 17.7699C16.3886 17.7336 16.2909 17.7688 16.2472 17.8486ZM22.8989 11.9039C20.8297 11.9039 19.1507 13.581 19.1381 15.6547C19.5894 15.5534 20.0709 15.4987 20.5707 15.4987C23.0993 15.4987 25.1571 16.899 25.2253 18.6445C26.099 17.9534 26.66 16.8817 26.66 15.6785C26.66 13.5938 24.9761 11.9039 22.8989 11.9039Z" fill="#512DBC"/>
<path d="M20.3912 23.6945L20.6437 23.946L19.5445 25.0492L18.4478 24.6823L17.3734 25.4014L16.3206 25.0492L15.6148 25.7577L13.5553 25.3443L13.6255 24.9949L15.4973 25.3705L16.2242 24.6411L17.3205 25.0079L18.3952 24.289L19.4479 24.6409L20.3912 23.6945Z" fill="#512DBC"/>
</svg>
