<svg width="36" height="36" viewBox="0 0 36 36" fill="none" xmlns="http://www.w3.org/2000/svg">
<path d="M36 18C36 8.05887 27.9411 0 18 0C8.05887 0 0 8.05887 0 18C0 27.9411 8.05887 36 18 36C27.9411 36 36 27.9411 36 18Z" fill="#F9F9F9"/>
<path d="M15.5755 18.3521C15.5357 18.2927 15.275 18.4312 15.1246 18.4401C14.9825 18.4485 15.2751 18.1508 15.1246 18.1912C14.9177 18.2467 14.2672 18.6665 14.0761 18.904C13.6798 19.3966 13.587 20.1734 13.8817 20.67C13.9215 20.7371 13.9654 20.794 14.0085 20.8442L14.0452 20.8856L14.1308 20.9778L14.1608 21.0114C14.2225 21.0827 14.2601 21.1457 14.2427 21.222C14.1903 21.4514 13.6891 21.5853 13.4096 21.5532C12.9915 21.5049 12.563 21.026 12.2225 20.3059L11.5253 20.9661L12.6853 22.5504L12.697 22.568C12.7445 22.6459 12.7453 22.7436 12.6991 22.8222L12.6877 22.84L11.7369 24.1849L12.5645 26.1098C14.1715 27.0996 16.0531 27.894 17.8802 27.9L16.4645 26.7229L16.447 26.7112C16.3732 26.6575 16.3347 26.5678 16.3468 26.4776L16.3502 26.4583L16.6885 24.8897L14.9632 23.861L14.9465 23.8501C14.8762 23.8002 14.8367 23.7177 14.8421 23.632L14.8441 23.6122L15.3072 20.4072C15.2208 20.3476 14.7975 20.1017 14.8741 19.5604C14.8954 19.4101 15.0809 19.1247 15.4306 18.7042L15.4684 18.6542C15.5647 18.5241 15.6215 18.4207 15.5755 18.3521ZM16.5081 20.0115C16.3088 20.2296 16.0602 20.4413 15.7995 20.5025L15.3638 23.5192L17.0998 24.5544L17.1175 24.566C17.1922 24.6195 17.2314 24.7098 17.2192 24.8005L17.2158 24.82L16.8773 26.3901L18.7573 27.532C19.2353 27.4944 21.1449 27.4405 23.5166 26.4064C23.7968 26.2842 24.3395 25.9522 25.1448 25.4106L22.9884 25.6315L22.9681 25.6356C22.8325 25.6575 22.7037 25.5659 22.6812 25.431L22.6788 25.4123L22.4599 23.0201L19.3977 24.3726L19.3782 24.3802C19.2737 24.4164 19.1572 24.3799 19.0926 24.2905L19.0811 24.2732L16.5081 20.0115ZM11.6128 18.1203L11.2742 18.6898L11.2623 18.7079C11.2158 18.7726 11.1408 18.8114 11.0608 18.812L11.0407 18.8114L9.42893 18.6968L8.54386 20.7265C8.89154 21.9806 9.49767 23.1789 10.383 24.2298C10.813 24.7403 11.4886 25.645 11.9933 26.0329L11.2213 24.2529L11.2137 24.2328C11.1913 24.1653 11.1991 24.0914 11.2351 24.03L11.2467 24.012L12.1748 22.6995L10.9911 21.0826L10.9796 21.0655C10.9227 20.9725 10.9333 20.8533 11.0056 20.7717L11.0209 20.7559L12.0171 19.8126C11.8331 19.3101 11.6906 18.7311 11.6128 18.1203ZM20.6865 18.4445L18.6732 20.0006L18.6554 20.0132C18.5587 20.0755 18.431 20.0638 18.3473 19.9851L18.3322 19.9695L17.3104 18.8272C17.2192 19.0439 17.0897 19.2411 16.9589 19.4278L16.8409 19.5945L19.3968 23.8281L22.576 22.4239L22.5942 22.4167C22.7405 22.3649 22.8995 22.4579 22.9248 22.6103L22.9272 22.6289L23.1514 25.0784L25.1372 24.5904C26.8124 23.1163 27.7335 21.7301 27.9004 20.4317L26.477 20.9599C26.2985 21.0358 26.1765 21.0422 26.1108 20.9788L24.505 19.1561L22.3131 20.9903L22.2965 21.003C22.1783 21.0867 22.0122 21.0524 21.9373 20.9287L21.9277 20.9112L20.6865 18.4445ZM17.7136 14.6544C17.4764 14.5663 17.2383 14.5063 17.0084 14.4676L16.9226 14.4541L16.8376 14.4425C16.8095 14.439 16.7815 14.4357 16.7536 14.4328L16.6707 14.4248L16.589 14.4186C16.4944 14.4123 16.4025 14.4093 16.314 14.409L16.2389 14.4095L16.1656 14.4112C16.1415 14.412 16.1177 14.413 16.0943 14.4141L16.0249 14.4182C16.0135 14.419 16.0022 14.4198 15.9909 14.4206L15.9247 14.4262L15.8607 14.4328L15.7991 14.4401L15.74 14.4483L15.6834 14.4572L15.6295 14.4666L15.5784 14.4767L15.5302 14.4872L15.4849 14.4981C15.4776 14.4999 15.4705 14.5018 15.4635 14.5037L15.4229 14.515L15.3857 14.5265L15.3518 14.5382L15.3213 14.5499L15.2945 14.5616L15.2713 14.5732C15.2358 14.5923 15.2162 14.6107 15.2145 14.6268C15.2117 14.6545 15.2621 14.6829 15.3336 14.7122L15.384 14.7318L15.4386 14.7517L15.5516 14.7921C15.6723 14.8364 15.7773 14.8825 15.7699 14.9304C15.7618 14.9824 15.6496 15.0102 15.503 15.0287L15.4383 15.0362L15.3707 15.0427L15.0945 15.0658L15.0303 15.072C14.8849 15.0873 14.7749 15.1086 14.7703 15.151C14.7657 15.1925 14.8631 15.2415 14.9927 15.2901L15.0546 15.3124L15.1195 15.3345C15.1305 15.3382 15.1416 15.3418 15.1527 15.3455L15.4369 15.4357L15.4882 15.4529C15.4962 15.4556 15.5038 15.4583 15.5111 15.4609L15.5505 15.4758C15.5851 15.49 15.605 15.5015 15.6032 15.5098C15.6007 15.521 15.5596 15.5211 15.4989 15.5164L15.45 15.512L15.2769 15.4938L15.1866 15.4854L15.1292 15.4813C15.0271 15.4756 14.9465 15.4797 14.9368 15.5098C14.9283 15.5363 14.9767 15.5778 15.0466 15.6223L15.0866 15.6468L15.1297 15.6715L15.1972 15.708L15.2422 15.7312L15.3066 15.763L15.4396 15.8286L15.5029 15.8612C15.5137 15.8668 15.5246 15.8726 15.5355 15.8785L15.6026 15.9153C15.6367 15.9344 15.6715 15.9545 15.7071 15.9757L15.779 16.0192L15.8523 16.0653C15.877 16.0811 15.9019 16.0973 15.9269 16.1139L16.0024 16.165C16.0404 16.1911 16.0786 16.2182 16.1169 16.2461L16.1937 16.3031L16.2705 16.3623C16.8457 16.8147 17.4011 17.4519 17.4359 18.1589C17.4369 18.1794 17.4375 18.1997 17.4376 18.2198L18.5509 19.4644L20.6201 17.865L20.6367 17.8532C20.7552 17.7758 20.9157 17.8122 20.9886 17.9332L20.998 17.9502L22.2337 20.4058L24.3701 18.6179L24.387 18.6049C24.485 18.5361 24.619 18.5462 24.7053 18.629L24.72 18.6444L26.2811 20.4172L27.5208 18.9482C27.6815 18.5293 27.6828 17.7791 27.5246 16.6975C27.2874 15.0751 26.9416 14.167 26.7731 13.8346L26.3865 16.1476L26.3804 16.1652C26.3248 16.3086 26.1514 16.3679 26.0187 16.2891L26.0024 16.2785L24.0984 14.9427L23.233 16.4476L23.2225 16.4644C23.1446 16.5782 22.9875 16.6074 22.8735 16.5292L22.8576 16.5173L21.0854 15.0863L20.6042 15.9471L20.5941 15.9637C20.5087 16.0924 20.3257 16.1132 20.2133 16.0073L20.199 15.9927L19.6928 15.4339C19.3512 15.4354 19.0883 15.3853 18.9041 15.2836L18.8397 15.2472L18.7404 15.1889L18.4933 15.0402L18.3794 14.9735L18.3003 14.9288L18.2186 14.8842C18.0662 14.8027 17.8995 14.7234 17.7136 14.6544ZM9.77529 14.4598L9.37015 14.6936L8.92979 14.9503L8.61724 15.1345C8.15897 16.6622 7.93892 18.5881 8.23575 20.1827L9.03994 18.3369L9.04914 18.318C9.09242 18.2379 9.17643 18.1875 9.26796 18.1869L9.28767 18.1875L10.9218 18.3039L11.5486 17.25C11.5402 16.8268 11.5658 16.3986 11.6324 15.9789C11.6727 15.7252 11.7289 15.4681 11.8007 15.2108L10.8943 15.4323L10.8726 15.4366C10.8 15.4477 10.726 15.4265 10.6705 15.3787L10.6544 15.3636L9.77529 14.4598ZM20.3852 11.0962C19.258 11.2207 18.8916 11.3739 18.0816 11.7086C17.8209 11.8163 17.5558 11.9275 17.2861 12.042L16.8782 12.2165L16.7525 12.2626L16.6751 12.2921L16.603 12.3206L16.536 12.348L16.4743 12.3744L16.4177 12.3998L16.3663 12.4241C16.3582 12.4281 16.3502 12.432 16.3425 12.4359L16.2989 12.4587C16.2306 12.4958 16.1838 12.5286 16.1587 12.5572C16.0004 12.737 16.0158 13.0849 16.1309 13.2746C16.2435 13.4604 16.4554 13.51 16.7415 13.5231L16.8146 13.5256L16.8907 13.527L17.0102 13.5277L17.1852 13.5278L17.2839 13.5283L17.3856 13.5299C17.7815 13.5382 18.2432 13.5787 18.741 13.7714C18.7653 13.7808 18.7896 13.7905 18.8139 13.8006L18.8871 13.8318C18.9115 13.8426 18.9359 13.8536 18.9603 13.865L19.0332 13.9L19.1058 13.9367C19.178 13.9742 19.2493 14.0141 19.3186 14.0559L19.3871 14.0983C19.8392 14.385 20.26 15.5772 20.3366 15.4004C20.3877 15.2824 20.5397 15.0107 20.7925 14.585L20.803 14.5679C20.8801 14.4524 21.0385 14.422 21.1534 14.5007L21.1695 14.5127C22.2332 15.4713 22.8249 15.949 22.9445 15.9458C23.0642 15.9426 23.3494 15.4466 23.8001 14.4579L23.8106 14.4411C23.8848 14.3327 24.0319 14.3003 24.1453 14.3673L24.162 14.3781C25.3182 15.2605 25.9336 15.6922 26.0082 15.6731C26.0828 15.654 26.1674 15.2071 26.262 14.3325C25.9847 13.963 25.7329 13.6627 25.5066 13.4315L25.4109 13.3357L25.3564 13.2836L25.2969 13.2286L25.2235 13.1629L25.1596 13.1073L25.0626 13.0257L25.0092 12.9819L24.923 12.9131L24.8616 12.8653L24.7635 12.791L24.6943 12.7399L24.622 12.6878L24.5466 12.6349L24.4683 12.5811C24.455 12.5721 24.4416 12.5631 24.428 12.554L24.3453 12.4994L24.2596 12.4444C24.2306 12.426 24.2011 12.4076 24.1711 12.3891L24.0797 12.3337C24.0643 12.3245 24.0487 12.3152 24.033 12.306L23.9375 12.2507C23.8728 12.2139 23.8064 12.1772 23.7381 12.1409L23.6344 12.0868C23.1009 11.813 22.3935 11.6395 21.763 11.4696C21.6519 11.4397 22.1449 11.1135 22.0135 11.0962C21.8512 11.0749 21.5125 10.9717 20.3852 11.0962ZM12.3051 12.0101L9.85948 12.496L9.85535 12.502C9.45575 13.0954 8.87075 13.7843 8.6115 14.457L9.18498 14.2241L9.69391 13.9314L9.71287 13.9215C9.80261 13.8797 9.90905 13.8945 9.98375 13.9593L9.99925 13.9739L10.9145 14.9145L11.9801 14.6542C12.1452 14.2038 12.3571 13.7595 12.6132 13.3376L12.3051 12.0101ZM12.6962 9.75643C11.7714 10.3277 10.7921 10.9838 10.1145 11.843L12.4452 11.4745L12.4641 11.4714C12.5836 11.4569 12.6968 11.5293 12.7331 11.6432L12.7384 11.6626L12.9956 12.7697C13.3936 12.2356 13.8691 11.7557 14.4157 11.3701L14.6988 10.058L12.6962 9.75643ZM19.6337 12.2165C19.7721 12.2165 19.8842 12.3279 19.8842 12.4654C19.8842 12.6029 19.7721 12.7144 19.6337 12.7144C19.4954 12.7144 19.3832 12.6029 19.3832 12.4654C19.3832 12.3279 19.4954 12.2165 19.6337 12.2165ZM15.855 8.47133C15.0282 8.67021 13.4553 9.33347 13.404 9.3595L15.0369 9.60535L15.0552 9.6088C15.1813 9.63729 15.265 9.75727 15.2477 9.88452L15.2443 9.90365L15.0065 11.0062C15.0749 10.9699 15.1443 10.935 15.2145 10.9015C15.5941 10.7209 16.0138 10.5772 16.457 10.4659L17.2658 9.40334L15.855 8.47133ZM19.7581 8.52337L20.3639 9.0584L20.3774 9.07121C20.4671 9.16287 20.4719 9.30772 20.389 9.40507L20.3744 9.42083L19.6291 10.1592C20.1352 10.1738 20.6238 10.2154 21.0731 10.2782L21.2225 10.3001L21.2996 10.3122L21.7858 10.3912L21.9093 10.4104L22.0317 10.4282L22.1122 10.4392L22.1916 10.4491L22.2695 10.458L22.3458 10.4656L22.42 10.4717C22.4322 10.4726 22.4444 10.4735 22.4564 10.4742L22.5272 10.478C22.8169 10.4899 23.0375 10.4547 23.1006 10.322C23.1222 10.2765 23.0806 10.1716 22.9769 10.0345L22.9456 9.99448C22.9291 9.97406 22.9113 9.95303 22.8922 9.93148L22.8525 9.88769L22.8094 9.84265C22.8019 9.83504 22.7943 9.82739 22.7865 9.8197L22.7384 9.77303C22.7218 9.75732 22.7046 9.74145 22.6869 9.72546L22.632 9.67712C22.5849 9.63656 22.5344 9.59535 22.4803 9.55385L22.4138 9.50395C22.0957 9.27064 21.6692 9.03306 21.1368 8.8557C20.7347 8.72176 20.2751 8.61098 19.7581 8.52337ZM16.7973 8.28003C16.7108 8.29452 16.6248 8.30971 16.5395 8.32561L17.7648 9.1351L17.7799 9.14593C17.8818 9.22451 17.9068 9.36786 17.8376 9.47583L17.8259 9.49257L17.2023 10.3119C17.7645 10.2185 18.3477 10.1694 18.9218 10.1567L19.8323 9.25499L18.8651 8.40114C18.2422 8.334 17.553 8.29363 16.7973 8.28003Z" fill="#512DBC"/>
</svg>
