<svg width="146" height="18" viewBox="0 0 146 18" fill="none" xmlns="http://www.w3.org/2000/svg">
<path d="M6.38178 2.16789C6.38178 3.10512 6.96749 3.90353 7.78742 4.20608V15.4521H3.58023L3.58047 4.20608C4.4004 3.90353 4.9861 3.10512 4.9861 2.16789C4.9861 0.970521 4.03049 0 2.8518 0C1.6736 0 0.717987 0.970521 0.717987 2.16789C0.717987 3.10512 1.30393 3.90353 2.12386 4.20608V15.4521H0.728182L0.685219 15.4534C0.303166 15.4758 0 15.7978 0 16.1916C0 16.6002 0.325983 16.9316 0.728182 16.9316H8.5156L8.70444 16.9304C13.5519 16.8791 17.6152 14.852 19.5102 11.505C19.6189 11.5198 19.7301 11.5274 19.843 11.5274C21.217 11.5274 22.3309 10.3959 22.3309 9C22.3309 8.2546 22.0132 7.58466 21.5078 7.12184C22.2528 5.86307 23.3761 4.82104 24.7783 4.05099V11.9959C23.9584 12.2984 23.3727 13.0968 23.3727 14.0341C23.3727 15.2315 24.3283 16.202 25.5065 16.202C26.6852 16.202 27.6406 15.2315 27.6406 14.0341C27.6406 13.0968 27.0546 12.2984 26.2349 11.9959V3.38647C27.4959 2.91625 28.9156 2.63269 30.4419 2.56414V13.7939C29.622 14.0962 29.036 14.8949 29.036 15.8321C29.036 17.0295 29.9916 18 31.1701 18C32.3487 18 33.3044 17.0295 33.3044 15.8321C33.3044 14.8949 32.7187 14.0962 31.8985 13.7939L31.8982 2.54786H36.1057L36.1059 13.7939C35.2857 14.0962 34.7 14.8946 34.7 15.8321C34.7 17.0295 35.6554 18 36.8339 18C38.0123 18 38.9679 17.0295 38.9679 15.8321C38.9679 14.8949 38.382 14.0962 37.5623 13.7939L37.562 2.54786H38.9577L39.0004 2.54663C39.3827 2.52419 39.6857 2.20216 39.6857 1.80838C39.6857 1.39981 39.3602 1.06841 38.9577 1.06841H31.1701L30.9817 1.0694C26.1337 1.12068 22.0707 3.14803 20.1757 6.49504C20.067 6.48025 19.9558 6.4726 19.843 6.4726C18.4691 6.4726 17.355 7.60414 17.355 9C17.355 9.7454 17.6727 10.4153 18.1781 10.8782C17.4332 12.1367 16.3098 13.179 14.9076 13.9493V6.00411C15.7275 5.70156 16.3132 4.90315 16.3132 3.96567C16.3132 2.76855 15.3578 1.79778 14.1794 1.79778C13.001 1.79778 12.0453 2.76855 12.0453 3.96567C12.0453 4.90315 12.631 5.70156 13.4512 6.00411V14.6133C12.19 15.0838 10.7705 15.3676 9.24378 15.4359V4.20608C10.064 3.90353 10.6497 3.10512 10.6497 2.16789C10.6497 0.970521 9.69404 0 8.5156 0C7.33716 0 6.38178 0.970521 6.38178 2.16789ZM139.01 3.15912L134.101 14.7945H135.958L139.828 5.33268L143.73 14.7945H145.555L140.646 3.15912H139.01ZM129.089 14.7945H130.946V3.15912H129.089V14.7945ZM122.864 3.15912V12.0136L114.62 3.15912H113.046V14.7945H114.903V5.94025L123.147 14.7945H124.72V3.15912H122.864ZM106.821 14.7945H108.677V3.15912H106.821V14.7945ZM101.714 3.15912L97.9698 12.525L94.3512 3.15912H92.3689L94.5714 8.56134L93.0609 12.525L89.285 3.15912H87.3024L92.2114 14.7945H93.8476L95.5154 10.8308L97.12 14.7945H98.7563L103.665 3.15912H101.714ZM75.3231 3.15912V14.7945H77.1795V4.82153H81.868C82.8433 4.82153 83.5042 5.49271 83.5042 6.4837C83.5042 7.47444 82.8433 8.14586 81.868 8.14586L79.2638 8.14562V9.80778L81.3962 9.80803L83.4416 14.7945H85.3606L83.2525 9.61595L83.3263 9.58759C84.5737 9.08877 85.3606 7.86304 85.3606 6.4837C85.3606 4.66175 84.0392 3.15912 82.0569 3.15912H75.3231ZM66.8362 3.15912L61.9275 14.7945H63.7839L67.6542 5.33268L71.5562 14.7945H73.3813L68.4726 3.15912H66.8362ZM49.1297 3.15912V14.7945H54.1646L54.2597 14.7938C57.3953 14.7427 59.9857 12.1729 59.9857 8.97682C59.9857 5.55682 57.4999 3.15912 54.1646 3.15912H49.1297ZM50.9863 4.82153H54.1646C56.4302 4.82153 58.1293 6.64348 58.1293 8.97682C58.1293 11.3104 56.4302 13.1324 54.1646 13.1324H50.9863V4.82153Z" fill="white"/>
</svg>
