<svg width="20" height="20" viewBox="0 0 20 20" fill="none" xmlns="http://www.w3.org/2000/svg">
<path fill-rule="evenodd" clip-rule="evenodd" d="M10 20C4.47619 20 0 15.5238 0 10C0 4.47619 4.47619 0 10 0C15.5238 0 20 4.47619 20 10C20 15.5238 15.5238 20 10 20ZM1.26894 7.64541C1.06268 8.39764 0.952393 9.18726 0.952393 9.99996C0.952393 14.4815 4.30597 18.2612 8.61355 18.9393C8.89379 18.8572 9.25192 18.8572 9.52382 18.8572C9.42858 18.2858 9.42858 17.8096 9.42858 17.2382C9.42858 17.2382 7.23811 15.6191 7.23811 14.6668C7.23811 14.2642 7.28915 13.9468 7.32651 13.7144C7.37755 13.3969 7.40307 13.2382 7.23811 13.2382C7.0671 13.2382 6.8838 13.2873 6.71469 13.3327C6.4129 13.4135 6.15629 13.4823 6.09525 13.2382C5.90478 12.6668 5.52382 12.1906 4.95239 12.0001C3.52382 12.0001 3.42859 10.2858 3.42859 8.66676C3.42859 8.35139 3.17795 8.24488 2.898 8.12591C2.75524 8.06525 2.60486 8.00134 2.47621 7.90485C2.42859 7.95247 2.40478 7.97628 2.40478 8.00009C2.40478 8.0239 2.42859 8.04771 2.47621 8.09533C2.19049 8.57152 1.52382 8.57152 1.14287 8.19057C1.17968 8.00652 1.22176 7.82475 1.26894 7.64541ZM12.1466 18.7854C15.187 18.0301 17.6484 15.7136 18.6108 12.7558C18.5981 12.7898 18.5849 12.8236 18.5714 12.8574C17.8095 14.0002 16.6667 14.1907 16.9524 13.4288C16.6667 12.8574 16.2857 12.3812 15.8095 11.905C14.9524 11.1431 14.1905 9.71453 16.8571 7.71453C16.3809 6.47643 17.8095 5.33358 18.381 6.85738C18.381 6.95262 18.4762 6.95262 18.4762 6.95262C18.604 7.33607 18.7318 7.71952 18.8309 8.04541C17.9973 4.34009 14.8527 1.45316 11.0237 1.01113C12.196 1.55269 12.1581 2.83759 11.0476 2.66675C11.0476 3.14294 11.0476 3.71437 10.9524 4.2858C10.8948 4.86152 10.4544 4.98481 10.0519 5.09747C9.78865 5.17117 9.54159 5.24033 9.42859 5.42865C9.14288 5.90484 10 6.38103 10.9524 6.19056C11.1071 6.19056 11.0943 6.10682 11.0802 6.01489C11.0683 5.93702 11.0555 5.85328 11.1429 5.80961C11.5238 5.71437 12 5.71437 12.381 5.80961C12 6.66675 11.5238 7.52389 11.0476 8.2858C10.919 8.47878 10.9641 8.80211 11.007 9.10906C11.0276 9.25655 11.0476 9.40025 11.0476 9.52389C11.0476 11.5767 10.3594 10.3356 9.9012 9.50942C9.72166 9.18568 9.57745 8.92565 9.52383 8.95247C9.40808 9.06822 9.04613 8.97294 8.69446 8.88038C8.46745 8.82062 8.2447 8.76199 8.09526 8.76199C7.90478 8.76199 7.85716 8.95246 7.80954 9.14294C7.76192 9.33342 7.7143 9.52389 7.52383 9.52389C7.17481 9.52389 7.02564 9.48392 6.96647 9.46807C6.94531 9.4624 6.93566 9.45981 6.93249 9.46323C6.92982 9.46611 6.93173 9.47321 6.93523 9.48629C6.94137 9.50918 6.9524 9.55036 6.9524 9.61913C6.9524 9.75856 6.96516 9.94902 6.98133 10.1905C7.00936 10.6088 7.04764 11.1803 7.04764 11.9049C7.04764 12.1393 7.33617 12.0491 7.66909 11.9451C7.87716 11.8801 8.10259 11.8096 8.28573 11.8096C8.67624 11.8096 8.97778 12.032 9.25117 12.2336C9.37783 12.327 9.49845 12.416 9.61907 12.4763C9.94878 12.6176 10.2785 12.922 10.5852 13.2051C10.8986 13.4944 11.1879 13.7615 11.4286 13.8096C11.6519 13.8543 11.6867 14.0455 11.7196 14.2262C11.7569 14.4309 11.7918 14.6221 12.0953 14.5715C12.381 14.4763 12.7619 14.6668 12.9524 14.9525C13.2381 15.3334 13.0476 15.8096 12.6667 16.0953C12.0953 16.6668 11.9048 17.3334 11.6191 18.6668C11.8661 18.5844 12.0419 18.6445 12.1466 18.7854ZM19.0473 9.91927C19.0456 10.1801 19.0375 10.4407 19.0202 10.6997C19.0384 10.4686 19.0476 10.2352 19.0476 9.99996C19.0476 9.97304 19.0475 9.94614 19.0473 9.91927Z" fill="white" fill-opacity="0.5"/>
</svg>
