<svg width="13" height="10" viewBox="0 0 13 10" fill="none" xmlns="http://www.w3.org/2000/svg">
<path fill-rule="evenodd" clip-rule="evenodd" d="M8.55278 0C9.19788 0 9.78191 0.261478 10.2047 0.684231C10.6274 1.10698 10.8889 1.69101 10.8889 2.33611C10.8889 2.98121 10.6274 3.56524 10.2047 3.98799C9.78191 4.41074 9.19788 4.67222 8.55278 4.67222C7.90768 4.67222 7.32365 4.41074 6.9009 3.98799C6.47815 3.56524 6.21667 2.98121 6.21667 2.33611C6.21667 1.69101 6.47815 1.10698 6.9009 0.684231C7.32365 0.261478 7.90768 0 8.55278 0ZM8.55278 1.12778C8.21911 1.12778 7.91702 1.26302 7.69836 1.48169C7.47969 1.70036 7.34444 2.00244 7.34444 2.33611C7.34444 2.66978 7.47969 2.97187 7.69836 3.19053C7.91702 3.4092 8.21911 3.54444 8.55278 3.54444C8.88645 3.54444 9.18853 3.4092 9.4072 3.19053C9.62586 2.97187 9.76111 2.66978 9.76111 2.33611C9.76111 2.00244 9.62586 1.70036 9.4072 1.48169C9.18853 1.26302 8.88645 1.12778 8.55278 1.12778ZM5.66107 1.61098C5.60304 1.84311 5.57222 2.08601 5.57222 2.33611C5.57222 2.58617 5.60303 2.82904 5.66104 3.06113L0.402778 3.06111C0.291554 3.06111 0.190859 3.01603 0.117971 2.94314C0.0450825 2.87025 0 2.76956 0 2.65833V2.01389C0 1.90266 0.0450825 1.80197 0.117971 1.72908C0.190859 1.65619 0.291554 1.61111 0.402779 1.61111L5.66107 1.61098ZM12.0972 1.61111C12.2084 1.61111 12.3091 1.65619 12.382 1.72908C12.4549 1.80197 12.5 1.90266 12.5 2.01389V2.65833C12.5 2.76956 12.4549 2.87025 12.382 2.94314C12.3091 3.01603 12.2084 3.06111 12.0972 3.06111L11.4445 3.06112C11.5025 2.82904 11.5333 2.58617 11.5333 2.33611C11.5333 2.08602 11.5025 1.84312 11.4445 1.611L12.0972 1.61111Z" fill="white"/>
<path fill-rule="evenodd" clip-rule="evenodd" d="M3.94722 5C3.30212 5 2.71809 5.26148 2.29534 5.68423C1.87259 6.10698 1.61111 6.69101 1.61111 7.33611C1.61111 7.98121 1.87259 8.56524 2.29534 8.98799C2.71809 9.41074 3.30212 9.67222 3.94722 9.67222C4.59232 9.67222 5.17635 9.41074 5.5991 8.98799C6.02185 8.56524 6.28333 7.98121 6.28333 7.33611C6.28333 6.69101 6.02185 6.10698 5.5991 5.68423C5.17635 5.26148 4.59232 5 3.94722 5ZM3.94722 6.12778C4.28089 6.12778 4.58298 6.26302 4.80164 6.48169C5.02031 6.70036 5.15556 7.00244 5.15556 7.33611C5.15556 7.66978 5.02031 7.97187 4.80164 8.19053C4.58298 8.4092 4.28089 8.54444 3.94722 8.54444C3.61355 8.54444 3.31147 8.4092 3.0928 8.19053C2.87414 7.97187 2.73889 7.66978 2.73889 7.33611C2.73889 7.00244 2.87414 6.70036 3.0928 6.48169C3.31147 6.26302 3.61355 6.12778 3.94722 6.12778ZM6.83893 6.61098C6.89696 6.84311 6.92778 7.08601 6.92778 7.33611C6.92778 7.58617 6.89697 7.82904 6.83896 8.06113L12.0972 8.06111C12.2084 8.06111 12.3091 8.01603 12.382 7.94314C12.4549 7.87025 12.5 7.76956 12.5 7.65833V7.01389C12.5 6.90266 12.4549 6.80197 12.382 6.72908C12.3091 6.65619 12.2084 6.61111 12.0972 6.61111L6.83893 6.61098ZM0.402778 6.61111C0.291553 6.61111 0.190859 6.65619 0.11797 6.72908C0.0450821 6.80197 0 6.90266 0 7.01389V7.65833C0 7.76956 0.0450821 7.87025 0.11797 7.94314C0.190859 8.01603 0.291553 8.06111 0.402779 8.06111L1.05548 8.06112C0.997474 7.82904 0.966666 7.58617 0.966666 7.33611C0.966666 7.08602 0.997482 6.84312 1.05551 6.611L0.402778 6.61111Z" fill="white"/>
</svg>
