<?xml version="1.0" encoding="UTF-8"?>
<svg width="102px" height="102px" viewBox="0 0 102 102" version="1.1" xmlns="http://www.w3.org/2000/svg" xmlns:xlink="http://www.w3.org/1999/xlink">
    <title>Account Migration</title>
    <g id="页面-1" stroke="none" stroke-width="1" fill="none" fill-rule="evenodd">
        <g id="Account-Migration">
            <circle id="椭圆形备份-3" fill="#FF0083" cx="51" cy="51" r="51"></circle>
            <g id="编组-2" transform="translate(51.000000, 50.651891) scale(-1, 1) translate(-51.000000, -50.651891) translate(24.000000, 24.000000)" fill="#FFFFFF">
                <path d="M22.2543945,1.24955414 L22.2543945,7.26537041 C18.8529953,6.9621527 15.7391646,8.22367495 13.5514881,10.4113514 C12.0893914,11.8734482 11.0409792,13.7492296 10.5968847,15.8480625 L13.8075032,15.8479004 C14.359788,15.8479004 14.8075032,16.2956156 14.8075032,16.8479004 C14.8075032,17.0887927 14.7205465,17.3215892 14.5626198,17.503491 L8.08945266,24.9593572 C7.72737998,25.3763965 7.09578489,25.4209558 6.67874554,25.0588831 C6.63794746,25.0234623 6.60008708,24.9847934 6.5655362,24.943256 L0.363730785,17.4873898 C0.0105505387,17.0627933 0.0684448236,16.4322807 0.493041289,16.0791005 C0.672652776,15.9296993 0.898904903,15.8479004 1.13253069,15.8479004 L4.51161868,15.8474011 C5.01565249,12.0890596 6.75546151,8.72209668 9.30884745,6.16871073 C12.5830208,2.89453739 17.1949259,0.958095798 22.2543945,1.24955414 Z" id="形状结合"></path>
                <path d="M52.2543945,29.2495541 L52.2543945,35.2653704 C48.8529953,34.9621527 45.7391646,36.2236749 43.5514881,38.4113514 C42.0893914,39.8734482 41.0409792,41.7492296 40.5968847,43.8480625 L43.8075032,43.8479004 C44.359788,43.8479004 44.8075032,44.2956156 44.8075032,44.8479004 C44.8075032,45.0887927 44.7205465,45.3215892 44.5626198,45.503491 L38.0894527,52.9593572 C37.72738,53.3763965 37.0957849,53.4209558 36.6787455,53.0588831 C36.6379475,53.0234623 36.6000871,52.9847934 36.5655362,52.943256 L30.3637308,45.4873898 C30.0105505,45.0627933 30.0684448,44.4322807 30.4930413,44.0791005 C30.6726528,43.9296993 30.8989049,43.8479004 31.1325307,43.8479004 L34.5116187,43.8474011 C35.0156525,40.0890596 36.7554615,36.7220967 39.3088475,34.1687107 C42.5830208,30.8945374 47.1949259,28.9580958 52.2543945,29.2495541 Z" id="形状结合备份" transform="translate(41.193450, 41.262243) scale(-1, -1) translate(-41.193450, -41.262243) "></path>
                <rect id="矩形" x="30" y="0" width="24" height="24" rx="12"></rect>
                <rect id="矩形备份-4" x="0" y="29" width="24" height="24"></rect>
            </g>
        </g>
    </g>
</svg>