<?xml version="1.0" encoding="UTF-8"?>
<svg width="102px" height="102px" viewBox="0 0 102 102" version="1.1" xmlns="http://www.w3.org/2000/svg" xmlns:xlink="http://www.w3.org/1999/xlink">
    <title>Staking</title>
    <g id="页面-1" stroke="none" stroke-width="1" fill="none" fill-rule="evenodd">
        <g id="Staking">
            <circle id="椭圆形" fill="#FF0083" cx="51" cy="51" r="51"></circle>
            <g id="logo" transform="translate(15.000000, 24.000000)">
                <path d="M37.8297456,-2.78034426 C53.7455545,-2.78034426 66.6289083,10.4819317 66.6289083,26.7840778 C66.6289083,43.0862239 53.7455545,56.3484998 37.8297456,56.3484998 C21.9139367,56.3484998 9.03058291,43.0862239 9.03058291,26.7840778 C9.03058291,10.4819317 21.9139367,-2.78034426 37.8297456,-2.78034426 Z M37.8297456,2.78034426 C25.0216713,2.78034426 14.5912714,13.5175206 14.5912714,26.7840778 C14.5912714,40.050635 25.0216713,50.7878113 37.8297456,50.7878113 C50.6378199,50.7878113 61.0682198,40.050635 61.0682198,26.7840778 C61.0682198,13.5175206 50.6378199,2.78034426 37.8297456,2.78034426 Z" id="路径" fill="#FFFFFF" fill-rule="nonzero"></path>
                <polygon id="路径" fill="#FFFFFF" points="39.6981924 10.8227195 35.9612988 10.8227195 35.9612988 27.4156423 47.3671903 39.1570012 49.9885932 36.4297907 39.6981924 25.836731"></polygon>
                <path d="M40.3932784,10.1276335 L40.3922988,25.5537195 L50.4871641,35.9454647 L50.9551697,36.4272351 L50.4897182,36.9114736 L47.8683153,39.638684 L47.369835,40.1572845 L46.8686194,39.6413272 L35.4627279,27.8999683 L35.2662128,27.6976733 L35.2662128,10.1276335 L40.3932784,10.1276335 Z M39.0022988,11.5177195 L36.6562988,11.5177195 L36.6562988,27.1337195 L47.3642988,38.1557195 L49.0212988,36.4317195 L39.1996215,26.321057 L39.0031063,26.118762 L39.0022988,11.5177195 Z" id="路径" fill="#FFFFFF" fill-rule="nonzero"></path>
                <g id="编组" transform="translate(5.605041, 41.321571)">
                    <path d="M11.9516719,17.8955514 C18.552398,17.8955514 23.9033437,15.3917667 23.9033437,12.3031916 C23.9033437,11.7553324 23.9033437,9.89121248 23.9033437,6.71083179 L0,6.71083179 C0,9.53999997 0,11.4041199 0,12.3031916 C0,15.3917667 5.35094576,17.8955514 11.9516719,17.8955514 Z" id="椭圆形" fill="#FF89C6"></path>
                    <ellipse id="椭圆形" fill="#FFFFFF" cx="11.9516719" cy="5.59235983" rx="11.9516719" ry="5.59235983"></ellipse>
                </g>
                <g id="编组" transform="translate(0.000000, 32.444809)">
                    <path d="M11.9516719,17.8955514 C18.552398,17.8955514 23.9033437,15.3917667 23.9033437,12.3031916 C23.9033437,11.7553324 23.9033437,9.89121248 23.9033437,6.71083179 L0,6.71083179 C0,9.53999997 0,11.4041199 0,12.3031916 C0,15.3917667 5.35094576,17.8955514 11.9516719,17.8955514 Z" id="椭圆形" fill="#FF89C6"></path>
                    <ellipse id="椭圆形" fill="#FFFFFF" cx="11.9516719" cy="5.59235983" rx="11.9516719" ry="5.59235983"></ellipse>
                </g>
                <g id="编组" transform="translate(3.018099, 23.568048)">
                    <path d="M11.9516719,17.8955514 C18.552398,17.8955514 23.9033437,15.3917667 23.9033437,12.3031916 C23.9033437,11.7553324 23.9033437,9.89121248 23.9033437,6.71083179 L0,6.71083179 C0,9.53999997 0,11.4041199 0,12.3031916 C0,15.3917667 5.35094576,17.8955514 11.9516719,17.8955514 Z" id="椭圆形" fill="#FF89C6"></path>
                    <ellipse id="椭圆形" fill="#FFFFFF" cx="11.9516719" cy="5.59235983" rx="11.9516719" ry="5.59235983"></ellipse>
                </g>
            </g>
        </g>
    </g>
</svg>