<?xml version="1.0" encoding="UTF-8"?>
<svg width="102px" height="102px" viewBox="0 0 102 102" version="1.1" xmlns="http://www.w3.org/2000/svg" xmlns:xlink="http://www.w3.org/1999/xlink">
    <title>Token Migration</title>
    <g id="页面-1" stroke="none" stroke-width="1" fill="none" fill-rule="evenodd">
        <g id="Token-Migration">
            <circle id="椭圆形备份-2" fill="#FF0083" cx="51" cy="51" r="51"></circle>
            <g id="编组-3" transform="translate(22.000000, 25.000000)">
                <path d="M23.2543945,1.02885102 L23.2543945,7.04466729 C19.8529953,6.74144958 16.7391646,8.00297182 14.5514881,10.1906483 C13.0893914,11.6527451 12.0409792,13.5285264 11.5968847,15.6273593 L14.8075032,15.6271973 C15.359788,15.6271973 15.8075032,16.0749125 15.8075032,16.6271973 C15.8075032,16.8680896 15.7205465,17.100886 15.5626198,17.2827878 L9.08945266,24.738654 C8.72737998,25.1556934 8.09578489,25.2002527 7.67874554,24.83818 C7.63794746,24.8027592 7.60008708,24.7640903 7.5655362,24.7225529 L1.36373078,17.2666867 C1.01055054,16.8420902 1.06844482,16.2115776 1.49304129,15.8583974 C1.67265278,15.7089961 1.8989049,15.6271973 2.13253069,15.6271973 L5.51161868,15.626698 C6.01565249,11.8683564 7.75546151,8.50139355 10.3088475,5.94800761 C13.5830208,2.67383427 18.1949259,0.737392673 23.2543945,1.02885102 Z" id="形状结合" fill="#FFFFFF"></path>
                <path d="M56.2543945,27.028851 L56.2543945,33.0446673 C52.8529953,32.7414496 49.7391646,34.0029718 47.5514881,36.1906483 C46.0893914,37.6527451 45.0409792,39.5285264 44.5968847,41.6273593 L47.8075032,41.6271973 C48.359788,41.6271973 48.8075032,42.0749125 48.8075032,42.6271973 C48.8075032,42.8680896 48.7205465,43.100886 48.5626198,43.2827878 L42.0894527,50.738654 C41.72738,51.1556934 41.0957849,51.2002527 40.6787455,50.83818 C40.6379475,50.8027592 40.6000871,50.7640903 40.5655362,50.7225529 L34.3637308,43.2666867 C34.0105505,42.8420902 34.0684448,42.2115776 34.4930413,41.8583974 C34.6726528,41.7089961 34.8989049,41.6271973 35.1325307,41.6271973 L38.5116187,41.626698 C39.0156525,37.8683564 40.7554615,34.5013936 43.3088475,31.9480076 C46.5830208,28.6738343 51.1949259,26.7373927 56.2543945,27.028851 Z" id="形状结合备份" fill="#FFFFFF" transform="translate(45.193450, 39.041539) scale(-1, -1) translate(-45.193450, -39.041539) "></path>
                <g id="编组备份" transform="translate(29.000000, 0.000000)">
                    <path d="M14.5,21 C22.5081289,21 29,18.0618687 29,14.4375 C29,13.7946004 29,11.6071004 29,7.875 L0,7.875 C0,11.1949609 0,13.3824609 0,14.4375 C0,18.0618687 6.49187113,21 14.5,21 Z" id="椭圆形" fill="#FF89C6"></path>
                    <ellipse id="椭圆形" fill="#FFFFFF" cx="14.5" cy="6.5625" rx="14.5" ry="6.5625"></ellipse>
                </g>
                <g id="编组备份-2" transform="translate(0.000000, 31.000000)">
                    <path d="M14.5,21 C22.5081289,21 29,18.0618687 29,14.4375 C29,13.7946004 29,11.6071004 29,7.875 L0,7.875 C0,11.1949609 0,13.3824609 0,14.4375 C0,18.0618687 6.49187113,21 14.5,21 Z" id="椭圆形" fill="#FFFFFF"></path>
                    <ellipse id="椭圆形" fill="#FF89C6" cx="14.5" cy="6.5625" rx="14.5" ry="6.5625"></ellipse>
                </g>
            </g>
        </g>
    </g>
</svg>